<svg width="32" height="32" viewBox="0 0 32 32" fill="none" xmlns="http://www.w3.org/2000/svg">
<path fill-rule="evenodd" clip-rule="evenodd" d="M10 8C10 7.44772 10.4477 7 11 7H12C12.5523 7 13 7.44772 13 8H19C19 7.44772 19.4477 7 20 7H21C21.5523 7 22 7.44772 22 8H23C24.1046 8 25 8.89543 25 10V13V15.2547C24.396 14.8334 23.7224 14.5049 23 14.2899V14H21H9V23H14.2899C14.5049 23.7224 14.8334 24.396 15.2547 25H9C7.89543 25 7 24.1046 7 23V13V10C7 8.89543 7.89543 8 9 8H10ZM23 10H9V12H23V10ZM12 16C11.4477 16 11 16.4477 11 17C11 17.5523 11.4477 18 12 18C12.5523 18 13 17.5523 13 17C13 16.4477 12.5523 16 12 16ZM21 17C20.2089 17 19.4355 17.2346 18.7777 17.6741C18.1199 18.1136 17.6072 18.7384 17.3045 19.4693C17.0017 20.2002 16.9225 21.0044 17.0769 21.7804C17.2312 22.5563 17.6122 23.269 18.1716 23.8284C18.731 24.3878 19.4437 24.7688 20.2196 24.9231C20.9956 25.0775 21.7998 24.9983 22.5307 24.6955C23.2616 24.3928 23.8864 23.8801 24.3259 23.2223C24.7654 22.5645 25 21.7911 25 21C25 19.9391 24.5786 18.9217 23.8284 18.1716C23.0783 17.4214 22.0609 17 21 17ZM21 15C22.1867 15 23.3467 15.3519 24.3334 16.0112C25.3201 16.6705 26.0892 17.6075 26.5433 18.7039C26.9974 19.8003 27.1162 21.0067 26.8847 22.1705C26.6532 23.3344 26.0818 24.4035 25.2426 25.2426C24.4035 26.0818 23.3344 26.6532 22.1705 26.8847C21.0067 27.1162 19.8003 26.9974 18.7039 26.5433C17.6075 26.0892 16.6705 25.3201 16.0112 24.3334C15.3519 23.3467 15 22.1867 15 21C15 19.4087 15.6321 17.8826 16.7574 16.7574C17.8826 15.6321 19.4087 15 21 15ZM21.379 22.9029L19.962 21.4429C19.8259 21.3032 19.7498 21.1159 19.75 20.9209V18.7029C19.75 18.5703 19.8027 18.4431 19.8964 18.3493C19.9902 18.2556 20.1174 18.2029 20.25 18.2029H20.75C20.8826 18.2029 21.0098 18.2556 21.1036 18.3493C21.1973 18.4431 21.25 18.5703 21.25 18.7029V20.6109L22.45 21.8529C22.5421 21.9479 22.5928 22.0756 22.5909 22.2079C22.589 22.3403 22.5348 22.4665 22.44 22.5589L22.081 22.9089C21.9859 23.0013 21.858 23.0522 21.7254 23.0503C21.5928 23.0484 21.4664 22.994 21.374 22.8989L21.379 22.9029Z" fill="#87898B"/>
</svg>
