<svg width="18" height="18" viewBox="0 0 18 18" fill="none" xmlns="http://www.w3.org/2000/svg">
<path fill-rule="evenodd" clip-rule="evenodd" d="M4 0C3.44772 0 3 0.447715 3 1H2C0.895431 1 0 1.89543 0 3V6V16C0 17.1046 0.89543 18 2 18H16C17.1046 18 18 17.1046 18 16V6V3C18 1.89543 17.1046 1 16 1H15C15 0.447715 14.5523 0 14 0H13C12.4477 0 12 0.447715 12 1H6C6 0.447715 5.55228 0 5 0H4ZM2 3H16V5H2V3ZM2 7H16V16H2V7ZM4 10C4 9.44771 4.44772 9 5 9C5.55228 9 6 9.44771 6 10C6 10.5523 5.55228 11 5 11C4.44772 11 4 10.5523 4 10ZM9 9C8.44771 9 8 9.44771 8 10C8 10.5523 8.44771 11 9 11C9.55229 11 10 10.5523 10 10C10 9.44771 9.55229 9 9 9ZM12 10C12 9.44771 12.4477 9 13 9C13.5523 9 14 9.44771 14 10C14 10.5523 13.5523 11 13 11C12.4477 11 12 10.5523 12 10Z" fill="#87898B"/>
</svg>
