<svg width="10" height="10" viewBox="0 0 10 10" fill="none" xmlns="http://www.w3.org/2000/svg">
<path d="M9.79998 4.20703L5.29998 7.5918C5.21343 7.65671 5.10812 7.69141 4.99993 7.69141C4.89175 7.69141 4.78643 7.65671 4.69989 7.5918L0.199885 4.20703C0.147356 4.16763 0.103212 4.11705 0.0697582 4.06055C0.0363043 4.00405 0.0143467 3.94195 0.00506088 3.87695C-0.00422498 3.81195 -0.000736869 3.7472 0.0155589 3.68359C0.0318547 3.61999 0.060635 3.55839 0.100032 3.50586L0.706965 2.69922C0.787794 2.59488 0.906144 2.52648 1.0368 2.50781C1.16745 2.48915 1.30011 2.52208 1.40692 2.59961L4.99505 5.29883L8.58294 2.59961C8.63575 2.55866 8.69634 2.52889 8.76092 2.51172C8.8255 2.49454 8.89274 2.4907 8.95892 2.5C9.02355 2.50842 9.08595 2.5297 9.14227 2.5625C9.19859 2.5953 9.24782 2.63936 9.28704 2.69141L9.89398 3.49805C9.95962 3.58421 9.99464 3.68856 9.99383 3.79687C9.99594 3.8755 9.97969 3.95432 9.94598 4.02539C9.91227 4.09646 9.86221 4.15892 9.79998 4.20703Z" fill="#3F454A"/>
</svg>
