<svg width="10" height="10" viewBox="0 0 10 10" fill="none" xmlns="http://www.w3.org/2000/svg">
<path d="M5.37824 8.25301C5.33009 8.30557 5.27152 8.34754 5.20628 8.37626C5.14103 8.40497 5.07052 8.4198 4.99924 8.4198C4.92795 8.4198 4.85745 8.40497 4.7922 8.37626C4.72695 8.34754 4.66839 8.30557 4.62024 8.25301L0.135238 3.36001C0.0679281 3.28646 0.023463 3.19491 0.007262 3.09653C-0.00893903 2.99815 0.00382209 2.89718 0.0439908 2.80593C0.0841596 2.71467 0.150003 2.63707 0.233497 2.58258C0.316992 2.52808 0.414533 2.49905 0.514238 2.49901L9.48424 2.49901C9.58394 2.49905 9.68149 2.52808 9.76498 2.58258C9.84847 2.63707 9.91432 2.71467 9.95449 2.80593C9.99466 2.89718 10.0074 2.99815 9.99122 3.09653C9.97501 3.19491 9.93055 3.28646 9.86324 3.36001L5.37824 8.25301Z" fill="#87898B"/>
</svg>
