<svg width="32" height="32" viewBox="0 0 32 32" fill="none" xmlns="http://www.w3.org/2000/svg">
<path d="M8 20.665V24H11.333L21.163 14.17L17.83 10.835L8 20.665ZM23.74 11.59C23.8224 11.5078 23.8878 11.4101 23.9324 11.3026C23.977 11.1951 23.9999 11.0799 23.9999 10.9635C23.9999 10.8471 23.977 10.7319 23.9324 10.6244C23.8878 10.5168 23.8224 10.4192 23.74 10.337L21.66 8.25699C21.5778 8.1746 21.4801 8.10923 21.3726 8.06463C21.2651 8.02003 21.1499 7.99707 21.0335 7.99707C20.9171 7.99707 20.8019 8.02003 20.6944 8.06463C20.5869 8.10923 20.4892 8.1746 20.407 8.25699L18.781 9.88399L22.114 13.217L23.74 11.59Z" fill="#727578"/>
</svg>
