<svg width="24" height="24" viewBox="0 0 24 24" fill="none" xmlns="http://www.w3.org/2000/svg">
<rect width="24" height="24" rx="12" fill="#202529"/>
<path d="M11.625 6C11.4179 6 11.25 6.16789 11.25 6.375V11.25H6.375C6.16789 11.25 6 11.4179 6 11.625V12.375C6 12.5821 6.16789 12.75 6.375 12.75H11.25V17.625C11.25 17.8321 11.4179 18 11.625 18H12.375C12.5821 18 12.75 17.8321 12.75 17.625V12.75H17.625C17.8321 12.75 18 12.5821 18 12.375V11.625C18 11.4179 17.8321 11.25 17.625 11.25H12.75V6.375C12.75 6.16789 12.5821 6 12.375 6H11.625Z" fill="white"/>
</svg>
