<svg width="32" height="32" viewBox="0 0 32 32" fill="none" xmlns="http://www.w3.org/2000/svg">
<path fill-rule="evenodd" clip-rule="evenodd" d="M10.5 7C9.39543 7 8.5 7.89543 8.5 9V23C8.5 24.1046 9.39543 25 10.5 25H21.5C22.6046 25 23.5 24.1046 23.5 23V13C23.5 12.7348 23.3946 12.4804 23.2071 12.2929L18.2071 7.29289C18.0196 7.10536 17.7652 7 17.5 7H10.5ZM10.5 9H16.5V12C16.5 13.1046 17.3954 14 18.5 14H21.5V23H10.5V9ZM20.0858 12L18.5 10.4142V12H20.0858ZM19.0536 17.3011C19.4441 16.9106 19.4441 16.2774 19.0536 15.8869C18.6631 15.4964 18.0299 15.4964 17.6394 15.8869L15.4627 18.0636L14.3674 16.9683C13.9769 16.5778 13.3437 16.5778 12.9532 16.9683C12.5626 17.3589 12.5626 17.992 12.9532 18.3825L14.0485 19.4778C14.8295 20.2589 16.0958 20.2589 16.8769 19.4778L19.0536 17.3011Z" fill="#DE2233"/>
</svg>
