<svg width="16" height="16" viewBox="0 0 16 16" fill="none" xmlns="http://www.w3.org/2000/svg">
<path d="M14.4461 15.8566L11.2352 12.642C9.8169 13.7099 8.04665 14.2002 6.28183 14.0139C4.51702 13.8276 2.88796 12.9785 1.72322 11.6379C0.558483 10.2972 -0.0560156 8.56456 0.00401833 6.78863C0.0640523 5.01269 0.795396 3.32542 2.048 2.0667C3.30061 0.80799 4.98301 0.0713017 6.75636 0.00491069C8.52972 -0.0614803 10.2618 0.547332 11.6048 1.70887C12.9477 2.87041 13.8007 4.49829 13.993 6.26478C14.1853 8.03127 13.7028 9.80515 12.6413 11.2291L15.8522 14.4438C15.899 14.4902 15.9357 14.5453 15.9611 14.6062C15.9865 14.667 16 14.7323 16 14.7982C16 14.8641 15.9865 14.9294 15.9611 14.9903C15.9357 15.0511 15.899 15.1063 15.8522 15.1526L15.1482 15.8566C15.0548 15.9488 14.9293 16.0002 14.7981 16C14.6668 15.9994 14.5403 15.9482 14.4461 15.8566ZM2.08495 7.05347C2.08595 8.00646 2.36045 8.93911 2.87454 9.7411C3.38864 10.5431 4.12173 11.1807 4.9866 11.5785C5.85146 11.9762 6.81151 12.1175 7.75405 11.9855C8.69658 11.8534 9.58109 11.4535 10.3037 10.8333L10.8307 10.3C11.3564 9.69088 11.7263 8.96331 11.9101 8.17954C12.0938 7.39578 12.0849 6.57909 11.8848 5.79935C11.6847 5.01962 11.2991 4.29997 10.7607 3.70202C10.2223 3.10407 9.54839 2.64547 8.79452 2.36563C8.04065 2.08578 7.2291 1.99288 6.43158 2.09494C5.63406 2.197 4.87387 2.4911 4.21451 2.95179C3.55515 3.41248 3.01788 4.02616 2.647 4.74046C2.27612 5.45477 2.0828 6.2484 2.08495 7.05347Z" fill="#202529"/>
</svg>
