<svg width="20" height="20" viewBox="0 0 20 20" fill="none" xmlns="http://www.w3.org/2000/svg">
<path d="M10.0004 20.0004C8.02261 20.0004 6.08827 19.4137 4.44378 18.3149C2.79929 17.2161 1.51902 15.6539 0.76214 13.8266C0.00526381 11.9993 -0.194025 9.98906 0.191828 8.04925C0.57768 6.10944 1.53158 4.32863 2.93011 2.93011C4.32863 1.53158 6.10944 0.57768 8.04925 0.191828C9.98906 -0.194025 11.9993 0.00526381 13.8266 0.76214C15.6539 1.51902 17.2161 2.79929 18.3149 4.44378C19.4137 6.08827 20.0004 8.02261 20.0004 10.0004C20.0091 11.3161 19.7558 12.6212 19.2563 13.8383C18.7568 15.0555 18.0206 16.16 17.0903 17.0903C16.16 18.0206 15.0555 18.7568 13.8383 19.2563C12.6212 19.7558 11.3161 20.0091 10.0004 20.0004ZM10.0004 11.4184L12.4731 13.891C12.5198 13.9381 12.5758 13.9753 12.6371 14.0004C12.6985 14.0255 12.7642 14.0384 12.8305 14.0375C12.963 14.0369 13.0896 13.984 13.184 13.891L13.891 13.186C13.9849 13.0911 14.0375 12.964 14.0375 12.8305C14.0375 12.697 13.9849 12.568 13.891 12.4731L11.4125 10.0004L13.891 7.52777C13.9842 7.43408 14.0375 7.30634 14.0375 7.17425C14.0375 7.04216 13.9842 6.91637 13.891 6.82269L13.184 6.1098C13.1375 6.06278 13.0829 6.0259 13.0219 6.00042C12.9609 5.97495 12.8947 5.96136 12.8285 5.96136C12.7624 5.96136 12.6982 5.97495 12.6371 6.00042C12.5761 6.0259 12.5196 6.06278 12.4731 6.1098L10.0004 8.58831L7.52191 6.1098C7.47579 6.06285 7.42063 6.02551 7.3598 6.00042C7.29896 5.97533 7.23419 5.96252 7.16839 5.96331C7.10269 5.96319 7.03577 5.97537 6.97503 6.00042C6.91429 6.02547 6.85944 6.06339 6.81292 6.1098L6.10784 6.82269C6.01472 6.91637 5.96331 7.04216 5.96331 7.17425C5.96331 7.30634 6.01472 7.43408 6.10784 7.52777L8.5805 10.0004L6.10784 12.4731C6.01398 12.568 5.96136 12.697 5.96136 12.8305C5.96136 12.964 6.01398 13.0911 6.10784 13.186L6.81292 13.891C6.85944 13.9374 6.91429 13.9754 6.97503 14.0004C7.03577 14.0255 7.10269 14.0376 7.16839 14.0375C7.23419 14.0383 7.29896 14.0255 7.3598 14.0004C7.42063 13.9753 7.47579 13.938 7.52191 13.891L10.0004 11.4184Z" fill="#87898B"/>
</svg>
